<svg width="100%" height="100%" id="svg" viewBox="0 0 1440 590" xmlns="http://www.w3.org/2000/svg" class="transition duration-300 ease-in-out delay-150"><defs><linearGradient id="gradient" x1="0%" y1="50%" x2="100%" y2="50%"><stop offset="5%" stop-color="#f02aa6"></stop><stop offset="95%" stop-color="#ff6f48"></stop></linearGradient></defs><path d="M 0,600 C 0,600 0,200 0,200 C 39.819397816489996,215.2640831108409 79.63879563297999,230.5281662216818 137,232 C 194.36120436702,233.4718337783182 269.26421528457,221.15141822411377 313,220 C 356.73578471543,218.84858177588623 369.30434322873987,228.8661608818631 410,233 C 450.69565677126013,237.1338391181369 519.5184118004705,235.38393824843376 574,250 C 628.4815881995295,264.61606175156624 668.6220095693781,295.5980861244019 720,260 C 771.3779904306219,224.4019138755981 833.9935499220175,122.2237172539586 887,129 C 940.0064500779825,135.7762827460414 983.403790742552,251.5070448597637 1022,259 C 1060.596209257448,266.4929551402363 1094.3912871077746,165.7481033069867 1140,140 C 1185.6087128922254,114.25189669301331 1243.03106082635,163.50054191228952 1295,186 C 1346.96893917365,208.49945808771048 1393.484469586825,204.24972904385524 1440,200 C 1440,200 1440,600 1440,600 Z" stroke="none" stroke-width="0" fill="url(#gradient)" fill-opacity="0.53" class="transition-all duration-300 ease-in-out delay-150 path-0"></path><defs><linearGradient id="gradient" x1="0%" y1="50%" x2="100%" y2="50%"><stop offset="5%" stop-color="#f02aa6"></stop><stop offset="95%" stop-color="#ff6f48"></stop></linearGradient></defs><path d="M 0,600 C 0,600 0,400 0,400 C 36.03774881704511,372.0466441090169 72.07549763409023,344.09328821803376 128,338 C 183.92450236590977,331.90671178196624 259.73575828068414,347.6734912368817 314,378 C 368.26424171931586,408.3265087631183 400.98146924317325,453.2127468344392 437,457 C 473.01853075682675,460.7872531655608 512.338364746623,423.4755214253615 555,410 C 597.661635253377,396.5244785746385 643.6650717703351,406.88516746411483 699,388 C 754.3349282296649,369.11483253588517 819.0013481720372,320.9838087181792 870,345 C 920.9986518279628,369.0161912818208 958.3295355415157,465.17959766316847 1004,472 C 1049.6704644584843,478.82040233683153 1103.6805096618996,396.29780062914693 1156,360 C 1208.3194903381004,323.70219937085307 1258.948425810886,333.62919982024374 1306,348 C 1353.051574189114,362.37080017975626 1396.525787094557,381.18540008987816 1440,400 C 1440,400 1440,600 1440,600 Z" stroke="none" stroke-width="0" fill="url(#gradient)" fill-opacity="1" class="transition-all duration-300 ease-in-out delay-150 path-1"></path></svg>